<?xml version="1.0" encoding="utf-8"?>
<!DOCTYPE svg PUBLIC "-//W3C//DTD SVG 1.1//EN" "http://www.w3.org/Graphics/SVG/1.1/DTD/svg11.dtd">
<svg version="1.1" id="图形" xmlns="http://www.w3.org/2000/svg" xmlns:xlink="http://www.w3.org/1999/xlink" x="0px" y="0px" width="1025px" height="1024px" viewBox="0 0 1025 1024" enable-background="new 0 0 1025 1024" xml:space="preserve">
  <path fill="#fff" d="M0.511-128.305c0 277.365 0 554.732 0 832.097 0.227 0.984 0.529 1.957 0.667 2.953 0.431 3.109 0.613 6.264 1.22 9.336 4.862 24.565 16.959 44.873 36.395 60.642 14.648 11.884 31.402 19.147 50.169 21.611 2.592 0.341 5.172 0.768 7.757 1.155 277.025 0 554.049 0 831.074 0 3.181-0.424 6.377-0.757 9.541-1.287 21.973-3.677 41.021-13.165 56.74-29.015 15.176-15.303 24.685-33.594 28.277-54.897 0.561-3.326 1.101-6.657 1.65-9.985 0-277.707 0-555.414 0-833.121-0.437-2.918-0.821-5.846-1.317-8.753-3.636-21.318-12.727-39.917-27.902-55.404-15.417-15.733-33.981-25.584-55.725-29.341-3.408-0.589-6.825-1.125-10.239-1.686-277.707 0-555.414 0-833.121 0-2.917 0.437-5.843 0.821-8.751 1.316-21.314 3.634-39.91 12.724-55.397 27.894-15.734 15.412-25.588 33.972-29.344 55.712-0.62 3.581-1.132 7.181-1.694 10.773zM678.615 352.144c-14.775 0.014-29.42-1.352-43.926-4.137-23.955-4.6-46.679-12.692-67.91-24.691-8.284-4.682-16.096-10.198-24.134-15.318-1.798-1.146-2.148-2.078-0.45-3.909 4.336-4.674 8.496-9.526 12.533-14.463 16.012-19.582 28.854-41.111 38.604-64.419 13.054-31.209 20.030-63.747 20.718-97.629 0.378-18.638-0.966-37.119-4.394-55.425-5.312-28.359-14.923-55.202-28.943-80.44-10.673-19.213-23.442-36.914-38.487-52.94-1.681-1.79-1.451-2.756 0.402-3.899 10.133-6.257 19.929-13.157 30.454-18.662 27.58-14.425 57.039-22.576 88.144-24.814 17.158-1.235 34.234-0.762 51.224 1.748 26.441 3.907 51.485 12.129 75.067 24.8 25.895 13.914 48.257 32.13 67.288 54.506 11.754 13.82 21.757 28.805 29.88 45.005 13.714 27.351 21.767 56.276 23.938 86.85 1.212 17.072 0.734 34.065-1.761 50.969-3.904 26.442-12.125 51.487-24.792 75.070-13.91 25.897-32.104 48.284-54.504 67.287-15.544 13.186-32.523 24.11-50.988 32.768-31.045 14.556-63.724 21.638-97.962 21.744zM863.365 316c0.88 1.108 1.539 1.879 2.135 2.697 9.962 13.689 18.283 28.31 25.004 43.851 10.829 25.041 16.924 51.218 18.452 78.415 0.847 15.075 0.203 30.123-1.872 45.122-3.379 24.435-10.462 47.716-21.345 69.815-14.228 28.889-33.74 53.684-58.318 74.508-13.775 11.671-28.679 21.64-44.8 29.728-27.347 13.719-56.266 21.78-86.84 23.967-19.308 1.381-38.479 0.549-57.517-2.8-24.178-4.253-47.093-12.205-68.758-23.82-26.543-14.23-49.346-33.024-68.602-56.085-14.050-16.827-25.422-35.365-34.124-55.529-12.277-28.448-18.515-58.16-18.904-89.116-0.191-15.199 1.073-30.284 3.856-45.228 3.13-16.811 8.032-33.096 14.883-48.771 0.504-1.153 1.455-2.4 2.534-2.968 14.419-7.609 28.096-16.363 40.998-26.318 1.536-1.185 2.504-1.33 4.135-0.075 16.527 12.715 34.21 23.521 53.202 32.197 30.657 14.005 62.845 21.848 96.432 23.711 20.466 1.135 40.874-0.033 61.098-3.638 32.031-5.712 62.096-16.737 90.071-33.379 15.035-8.944 29.181-19.107 42.111-30.923 1.929-1.766 3.945-3.435 6.168-5.361zM345.937-109.279c127.466-0.071 229.463 102.777 230.73 228.144 1.309 129.513-103.258 233.252-230.473 233.303-127.651 0.051-229.845-102.838-230.986-228.438-1.175-129.41 103.422-233.24 230.729-233.010zM161.12 315.842c34.9 32.64 75.054 54.946 121.117 66.164 46.089 11.225 92.082 10.057 137.899-2.657 0.104 0.922 0.219 1.26 0.164 1.568-0.179 1.003-0.376 2.008-0.642 2.991-5.66 20.89-8.699 42.143-9.189 63.792-0.423 18.723 0.951 37.289 4.399 55.678 5.27 28.1 14.76 54.714 28.588 79.761 10.749 19.47 23.642 37.391 38.865 53.605 1.735 1.847 1.234 2.685-0.459 3.908-13.301 9.611-27.378 17.882-42.407 24.477-24.393 10.702-49.848 17.101-76.463 18.983-20.428 1.444-40.68 0.388-60.777-3.449-24.983-4.771-48.523-13.483-70.628-26.092-24.388-13.911-45.489-31.757-63.42-53.295-14.194-17.049-25.662-35.826-34.401-56.253-9.697-22.665-15.591-46.29-17.705-70.822-1.253-14.539-1.107-29.091 0.363-43.641 1.589-15.733 4.722-31.127 9.457-46.193 6.607-21.028 16.149-40.662 28.388-58.981 2.108-3.154 4.423-6.172 6.852-9.543zM485.202 208.296c35.278-45.409 44.308-126.733 0.521-189.847-47.946-69.106-136.035-90.351-207.12-58.379-77.65 34.926-108.993 115.834-97.519 179.591 0.941-3.86 1.673-7.517 2.726-11.078 5.895-19.947 18.472-34.595 36.107-45.169 14.324-8.588 29.916-13.309 46.415-15.485 12.996-1.713 26.001-1.951 39.015-0.82 16.097 1.398 31.778 4.941 47.102 10.042 20.64 6.87 40.13 16.118 58.189 28.297 13.11 8.841 25.123 19.003 35.937 30.525 15.267 16.264 27.478 34.465 34.276 55.929 1.36 4.296 2.313 8.721 3.456 13.085 0.255 0.97 0.522 1.935 0.893 3.309zM429.761 227.516c-0.093-21.051-17.026-37.677-38.303-37.608-20.888 0.068-37.687 17.054-37.643 38.062 0.044 20.703 17.279 37.752 38.118 37.706 20.935-0.046 37.921-17.181 37.828-38.16zM257.13 231.49c20.598 0.114 37.876-17.146 37.949-37.911 0.074-20.85-16.693-37.591-37.441-38.027-21.833-0.459-38.149 18.048-38.503 37.265-0.366 19.82 16.235 38.801 37.994 38.673z" transform="translate(0, 812) scale(1, -1)"/>
</svg>
